<?xml version="1.0" encoding="utf-8"?>
<!-- Generator: Adobe Illustrator 16.0.0, SVG Export Plug-In . SVG Version: 6.00 Build 0)  -->
<!DOCTYPE svg PUBLIC "-//W3C//DTD SVG 1.1//EN" "http://www.w3.org/Graphics/SVG/1.1/DTD/svg11.dtd">
<svg version="1.1" id="Capa_1" xmlns="http://www.w3.org/2000/svg" xmlns:xlink="http://www.w3.org/1999/xlink" x="0px" y="0px"
	 width="169.5px" height="143.087px" viewBox="0 0 169.5 143.087" enable-background="new 0 0 169.5 143.087" xml:space="preserve">
<g>
	<g>
		
			<linearGradient id="SVGID_1_" gradientUnits="userSpaceOnUse" x1="-16.8047" y1="-267.8369" x2="65.145" y2="-267.8369" gradientTransform="matrix(-0.8178 0.5755 -0.5483 -0.7792 -34.9645 -150.3291)">
			<stop  offset="0" style="stop-color:#9059E5"/>
			<stop  offset="1" style="stop-color:#3862FF"/>
		</linearGradient>
		<path opacity="0.4" fill="url(#SVGID_1_)" d="M105.45,119.336c-9.912,2.973-18.502-0.705-17.799-13.779
			c0.703-13.075-14.089-4.668-34.844-20.943C32.053,68.339,39.706,47.229,63.933,33.04c24.228-14.189,69.646,0.457,68.816,41.927
			S105.45,119.336,105.45,119.336z"/>
		
			<linearGradient id="SVGID_2_" gradientUnits="userSpaceOnUse" x1="-181.1499" y1="-199.5859" x2="-73.5063" y2="-199.5859" gradientTransform="matrix(-0.9102 0.336 -0.3463 -0.9381 -96.6389 -72.336)">
			<stop  offset="0" style="stop-color:#595BE5"/>
			<stop  offset="1" style="stop-color:#38EEFF"/>
		</linearGradient>
		<path opacity="0.6" fill="url(#SVGID_2_)" d="M120.943,24.8c-20.155-11.159-30.088,12.893-43.657,16.068
			c-13.57,3.176-51.704,1.482-39.637,44.28c9.807,34.783,60.104,32.944,82.211,16.4C141.966,85.006,139.555,35.104,120.943,24.8z"/>
		
			<linearGradient id="SVGID_3_" gradientUnits="userSpaceOnUse" x1="30.2793" y1="-124.6162" x2="110.6934" y2="-124.6162" gradientTransform="matrix(0.0882 -0.9961 0.9088 0.0805 191.0736 148.6227)">
			<stop  offset="0" style="stop-color:#9059E5"/>
			<stop  offset="1" style="stop-color:#3862FF"/>
		</linearGradient>
		<path fill="url(#SVGID_3_)" d="M40.173,75.178c-1.915-12.224,6.809-28.792,22.712-37.025
			c15.904-8.233,68.721-23.524,65.301,27.498c-3.419,51.022-41.985,44.473-55.761,41.083C58.65,103.344,42.624,90.822,40.173,75.178
			z"/>
	</g>
</g>
<path fill="#FFFFFF" d="M106.991,92.012H67.707c-4.664,0-6.357-3.797-6.357-6.35v-25c0-4.664,3.802-6.357,6.357-6.357h5.424h28.444
	h5.416c4.665,0,6.358,3.802,6.358,6.357v25C113.35,90.32,109.547,92.012,106.991,92.012z M67.707,56.305
	c-1.507,0-4.357,0.911-4.357,4.357v25c0,1.506,0.911,4.35,4.357,4.35h39.284c1.508,0,4.358-0.908,4.358-4.35v-25
	c0-1.507-0.911-4.357-4.358-4.357H67.707z"/>
<path display="none" fill="#FFFFFF" d="M87.62,75.628c0.35,0.476,0.698,1.113,1.097,1.757l0.003,0.003
	c0.504,0.814,1.229,1.403,2.053,1.691c1.215,0.425,2.522,0.26,3.845-0.171c1.328-0.437,2.71-1.164,4.115-2.046
	c1.223-0.766,2.33-1.567,3.237-2.423c0.904-0.856,1.623-1.769,1.998-2.811c0.2-0.563,0.291-1.167,0.228-1.776
	c-0.062-0.61-0.279-1.214-0.633-1.775c-0.455-0.721-0.931-1.382-1.199-1.946c-0.134-0.28-0.217-0.528-0.246-0.734
	c-0.029-0.208-0.016-0.369,0.047-0.55c0.05-0.139,0.135-0.297,0.294-0.485l0.041-0.047l0.033-0.052
	c0.087-0.136,0.393-0.533,0.807-0.971c0.624-0.666,1.529-1.473,2.46-1.982c0.465-0.255,0.932-0.436,1.361-0.511
	c0.433-0.075,0.817-0.055,1.191,0.077c0.321,0.117,0.648,0.318,0.996,0.683c0.758,0.801,1.352,1.913,1.714,3.111
	c0.362,1.185,0.494,2.45,0.395,3.54c-0.071,0.432-0.188,0.876-0.351,1.333c-0.639,1.805-7.856,9.264-10.229,10.736l-0.003,0.004
	l-0.002,0.001c-2.669,1.688-5.604,3.066-8.349,3.853c-2.733,0.788-5.271,0.965-7.131,0.402c-1.021-0.378-2.102-1.047-3.011-1.889
	c-0.92-0.848-1.662-1.867-2.052-2.896c-0.258-0.701-0.231-1.198-0.071-1.666c0.159-0.45,0.49-0.891,0.96-1.297
	c0.699-0.609,1.69-1.112,2.583-1.448c0.446-0.169,0.867-0.299,1.211-0.39c0.341-0.092,0.619-0.146,0.728-0.158l0.062-0.009
	l0.061-0.016c0.378-0.093,0.597-0.067,0.797,0C86.945,74.866,87.271,75.144,87.62,75.628"/>
<g id="Tareas_-_Naranja">
	<g>
		<g>
			<g>
				<path fill="#FFFFFF" d="M96.085,68.426c-4.526,3.521-9.329,6.693-13.812,10.264c0.707,0,1.414,0,2.121,0
					c-1.512-1.495-2.819-3.701-4.037-5.446c-1.099-1.574-3.701-0.077-2.591,1.514c1.357,1.945,2.828,4.395,4.506,6.054
					c0.63,0.623,1.479,0.512,2.121,0c4.479-3.566,9.287-6.743,13.812-10.264C99.731,69.36,97.592,67.253,96.085,68.426
					L96.085,68.426z"/>
			</g>
		</g>
	</g>
	<path fill="#FFFFFF" stroke="#FFFFFF" stroke-width="1.3577" stroke-miterlimit="10" d="M79.125,52.688
		c0-1.829-0.5-2.647-2.25-2.625c-2.25,0.029-2.25,0.796-2.25,2.625c0,2.375,1.007,2.063,2.25,2.063S79.125,55.125,79.125,52.688z"/>
	<path fill="#FFFFFF" stroke="#FFFFFF" stroke-miterlimit="10" d="M111.563,59.509c0,1-11.157,1.053-24.792,1.053
		S63.095,60.674,62.813,59.5c-0.813-3.383,10.902-3.359,24.537-3.359C112.254,56.141,111.563,56.528,111.563,59.509z"/>
	<path fill="#FFFFFF" stroke="#FFFFFF" stroke-width="1.3577" stroke-miterlimit="10" d="M101.125,52.688
		c0-1.829-0.5-2.647-2.25-2.625c-2.25,0.029-2.25,0.796-2.25,2.625c0,2.375,1.008,2.063,2.25,2.063S101.125,55.125,101.125,52.688z"
		/>
</g>
</svg>
