<?xml version="1.0" encoding="utf-8"?>
<!-- Generator: Adobe Illustrator 16.0.0, SVG Export Plug-In . SVG Version: 6.00 Build 0)  -->
<!DOCTYPE svg PUBLIC "-//W3C//DTD SVG 1.1//EN" "http://www.w3.org/Graphics/SVG/1.1/DTD/svg11.dtd">
<svg version="1.1" id="Capa_1" xmlns="http://www.w3.org/2000/svg" xmlns:xlink="http://www.w3.org/1999/xlink" x="0px" y="0px"
	 width="169.5px" height="143.087px" viewBox="0 0 169.5 143.087" enable-background="new 0 0 169.5 143.087" xml:space="preserve">
<path display="none" fill="#FFFFFF" d="M87.62,75.628c0.35,0.476,0.698,1.113,1.097,1.757l0.003,0.003
	c0.504,0.814,1.229,1.403,2.053,1.691c1.215,0.425,2.522,0.26,3.845-0.171c1.328-0.437,2.71-1.164,4.115-2.046
	c1.223-0.766,2.33-1.567,3.237-2.423c0.904-0.856,1.623-1.769,1.998-2.811c0.2-0.563,0.291-1.167,0.228-1.776
	c-0.062-0.61-0.279-1.214-0.633-1.775c-0.455-0.721-0.931-1.382-1.199-1.946c-0.134-0.28-0.217-0.528-0.246-0.734
	c-0.029-0.208-0.016-0.369,0.047-0.55c0.05-0.139,0.135-0.297,0.294-0.485l0.041-0.047l0.033-0.052
	c0.087-0.136,0.393-0.533,0.807-0.971c0.624-0.666,1.529-1.473,2.46-1.982c0.465-0.255,0.932-0.436,1.361-0.511
	c0.433-0.075,0.817-0.055,1.191,0.077c0.321,0.117,0.648,0.318,0.996,0.683c0.758,0.801,1.352,1.913,1.714,3.111
	c0.362,1.185,0.494,2.45,0.395,3.54c-0.071,0.432-0.188,0.876-0.351,1.333c-0.639,1.805-7.856,9.264-10.229,10.736l-0.003,0.004
	l-0.002,0.001c-2.669,1.688-5.604,3.066-8.349,3.853c-2.733,0.788-5.271,0.965-7.131,0.402c-1.021-0.378-2.102-1.047-3.011-1.889
	c-0.92-0.848-1.662-1.867-2.052-2.896c-0.258-0.701-0.231-1.198-0.071-1.666c0.159-0.45,0.49-0.891,0.96-1.297
	c0.699-0.609,1.69-1.112,2.583-1.448c0.446-0.169,0.867-0.299,1.211-0.39c0.341-0.092,0.619-0.146,0.728-0.158l0.062-0.009
	l0.061-0.016c0.378-0.093,0.597-0.067,0.797,0C86.945,74.866,87.271,75.144,87.62,75.628"/>
<g id="Tareas_-_Naranja">
</g>
<g id="Descargar">
	<g>
		
			<linearGradient id="SVGID_1_" gradientUnits="userSpaceOnUse" x1="-384.4434" y1="-266.4717" x2="-284.7734" y2="-266.4717" gradientTransform="matrix(-0.8467 -0.4738 0.4883 -0.8727 -71.9174 -313.6417)">
			<stop  offset="0" style="stop-color:#595BE5"/>
			<stop  offset="1" style="stop-color:#38EEFF"/>
		</linearGradient>
		<path opacity="0.6" fill="url(#SVGID_1_)" d="M132.979,73.873c-4.117-20.165-28.006-8.879-38.037-16.253
			c-10.031-7.375-31.867-40.054-53.934-7.024c-17.935,26.844,18.225,59.222,42.288,64.637
			C107.359,120.648,136.779,92.494,132.979,73.873z"/>
		
			<linearGradient id="SVGID_2_" gradientUnits="userSpaceOnUse" x1="338.2686" y1="-188.2734" x2="429.0186" y2="-188.2734" gradientTransform="matrix(-0.6183 0.7859 -0.786 -0.6183 170.2451 -346.4301)">
			<stop  offset="0" style="stop-color:#9059E5"/>
			<stop  offset="1" style="stop-color:#3862FF"/>
		</linearGradient>
		<path opacity="0.4" fill="url(#SVGID_2_)" d="M93.582,29.25c-10.901-4.723-42.717-3.104-51.264,38.385
			c-7.022,34.091,37.116,67.91,47.374,49.79c7.49-13.233,32.957-26.778,38.66-45.316C134.781,51.208,117.145,39.459,93.582,29.25z"
			/>
		
			<linearGradient id="SVGID_3_" gradientUnits="userSpaceOnUse" x1="101.4229" y1="-263.2422" x2="187.7471" y2="-263.2422" gradientTransform="matrix(-0.5161 -0.8565 0.8565 -0.5161 384.9543 60.5418)">
			<stop  offset="0" style="stop-color:#9059E5"/>
			<stop  offset="1" style="stop-color:#3862FF"/>
		</linearGradient>
		<path fill="url(#SVGID_3_)" d="M119.877,99.843c8.275-8.522,15.354-35.162-20.422-57.846C70.06,23.358,48.328,40.064,43.838,57.17
			c-4.329,16.496,7.145,32.013,22.462,43.911C83.57,114.495,101.984,118.264,119.877,99.843z"/>
	</g>
</g>
<g>
	<path fill="#FFFFFF" d="M109.668,73.938c0-8.038-10.813-9.702-24.069-9.702s-23.933,1.664-23.933,9.702
		c0,8.039,9.301,10.396,22.557,10.396C97.479,84.334,109.668,81.978,109.668,73.938z"/>
	<ellipse fill="#FFFFFF" cx="78.566" cy="64.237" rx="8.6" ry="9.57"/>
	<ellipse fill="#FFFFFF" cx="92.253" cy="66.459" rx="8.03" ry="8.347"/>
</g>
<linearGradient id="SVGID_4_" gradientUnits="userSpaceOnUse" x1="79.0947" y1="71.543" x2="92.1572" y2="71.543">
	<stop  offset="0" style="stop-color:#9059E5"/>
	<stop  offset="1" style="stop-color:#3862FF"/>
</linearGradient>
<polygon fill="url(#SVGID_4_)" points="87.897,70.727 87.897,65.245 83.354,65.245 83.354,70.727 79.095,70.727 85.626,77.842 
	92.157,70.727 "/>
</svg>
