<?xml version="1.0" encoding="utf-8"?>
<!-- Generator: Adobe Illustrator 16.0.0, SVG Export Plug-In . SVG Version: 6.00 Build 0)  -->
<!DOCTYPE svg PUBLIC "-//W3C//DTD SVG 1.1//EN" "http://www.w3.org/Graphics/SVG/1.1/DTD/svg11.dtd">
<svg version="1.1" xmlns="http://www.w3.org/2000/svg" xmlns:xlink="http://www.w3.org/1999/xlink" x="0px" y="0px"
	 width="5254.357px" height="1315.913px" viewBox="0 0 5254.357 1315.913" enable-background="new 0 0 5254.357 1315.913"
	 xml:space="preserve">
<g id="Background_1_">
</g>
<g id="Logo">
	<linearGradient id="SVGID_1_" gradientUnits="userSpaceOnUse" x1="279.4727" y1="703.5479" x2="279.4727" y2="1013.5118">
		<stop  offset="0" style="stop-color:#95C11F"/>
		<stop  offset="1" style="stop-color:#006633"/>
	</linearGradient>
	<path display="none" fill="url(#SVGID_1_)" d="M-23.541,740.554v-25.466c118.688-9.338,188.973,22.102,276.787,61.622
		c79.049,35.574,173.984,78.262,329.24,101.27c-28.957,5.564-58.291,10.683-87.471,15.767
		c-158.535,27.656-303.096,35.915-385.063,124.149C109.953,1017.896-7.835,898.046-23.541,740.554z"/>
	<linearGradient id="SVGID_2_" gradientUnits="userSpaceOnUse" x1="533.1499" y1="750.1753" x2="533.1499" y2="1166.7836">
		<stop  offset="0" style="stop-color:#95C11F"/>
		<stop  offset="1" style="stop-color:#006633"/>
	</linearGradient>
	<path display="none" fill="url(#SVGID_2_)" d="M907.12,865.664c0,15.505-68.267,131.004-167.992,207.873
		c-67.741,52.216-166.217,90.468-249.576,97.919c-71.427,6.385-162.462-13.089-225.9-39.422
		c-80.925-33.593-125.996-76.953-125.996-76.953c75.18-74.264,215.619-98.779,363.755-124.631
		c167.043-29.119,338.922-59.181,427.232-166.991L907.12,865.664z"/>
	<linearGradient id="SVGID_3_" gradientUnits="userSpaceOnUse" x1="625.2388" y1="579.522" x2="625.2388" y2="848.842">
		<stop  offset="0" style="stop-color:#95C11F"/>
		<stop  offset="1" style="stop-color:#006633"/>
	</linearGradient>
	<path display="none" fill="url(#SVGID_3_)" d="M928.643,693.8c-39.195,84.964-128.336,129.56-234.553,158.852
		c-182.99-13.276-290.844-51.213-379.231-89.381c180.747-21.656,277.489-70.823,356.882-111.216
		c78.184-39.777,140.824-71.431,256.902-62.392l6.975,48.897L928.643,693.8z"/>
	<linearGradient id="SVGID_4_" gradientUnits="userSpaceOnUse" x1="446.0049" y1="188.061" x2="446.0049" y2="670.8611">
		<stop  offset="0" style="stop-color:#95C11F"/>
		<stop  offset="1" style="stop-color:#006633"/>
	</linearGradient>
	<path display="none" fill="url(#SVGID_4_)" d="M726.299,376.124c-7.283-7.275-19.07-7.275-26.346,0L504.518,571.559
		L317.162,384.204c-7.284-7.276-19.079-7.276-26.347,0L-1.5,676.501c-7.19,0.257-14.518,0.625-22.041,1.189v-58.235l13.133-76.479
		l7.96-30.188c5.333-28.667,163.75-308.94,452.999-309.333c265-0.36,453,254,465,344L726.299,376.124z"/>
	<g id="XMLID_1_">
		<g>
			<linearGradient id="SVGID_5_" gradientUnits="userSpaceOnUse" x1="192.3975" y1="656.5371" x2="1254.187" y2="656.5371">
				<stop  offset="0" style="stop-color:#4E89B9"/>
				<stop  offset="0.445" style="stop-color:#6A5BA4"/>
				<stop  offset="0.7" style="stop-color:#30858A"/>
				<stop  offset="0.915" style="stop-color:#00A974"/>
			</linearGradient>
			<path fill="url(#SVGID_5_)" d="M723.297,125.642c293.2,0,530.89,237.69,530.89,530.9c0,293.199-237.689,530.891-530.89,530.891
				c-293.21,0-530.9-237.691-530.9-530.891C192.397,363.332,430.087,125.642,723.297,125.642z M1199.677,668.852
				c5.09-68.33-8.42-112-8.42-112c-134-15.34-294.8,83-294.8,83c-70,48.11-310.561,93.81-310.561,93.81
				c188.311,86.82,379.23,89.39,379.23,89.39C1116.107,781.932,1199.677,668.852,1199.677,668.852z M1018.257,365.462l162.33,150.39
				c-115-351-470.09-336.26-470.09-336.26c-194.91,6.26-309.57,120.64-309.57,120.64c-166.34,147.62-160.23,347.85-160.23,347.85
				l28.84-1.18l280.97-280.96c23.41-27.42,45.87-3.16,45.87-3.16l179.18,179.17l174.55-174.55
				C985.917,329.192,1018.257,365.462,1018.257,365.462z M1049.437,1007.282c127.82-114.1,147.33-276.25,147.33-276.25
				c-156.66,166.9-479.729,179.609-479.729,179.609c-234.54,23.781-308.35,111.26-308.35,111.26
				c115.9,101.951,259.9,110.932,259.9,110.932C901.917,1160.522,1049.437,1007.282,1049.437,1007.282z M1136.107,523.932
				l-151.949-137.89l-182.261,182.26l54.721,54.71c25.3-11.41,47.92-22.91,69.25-33.76
				C987.057,558.112,1057.248,531.112,1136.107,523.932z M713.498,869.852l140.03-21.48c0,0-222.44-38.35-368.811-118.83
				c-146.36-80.48-244.31-45.71-244.31-45.71s3.83,169.9,132.42,304.46C372.828,988.292,469.498,890.852,713.498,869.852z
				 M819.607,638.712l-57.21-57.22c0-0.01-0.02-0.01-0.02-0.02c-0.021-0.01-0.021-0.01-0.021-0.02l-187.329-187.33l-253.48,253.47
				c76.08,5.24,134.12,28.19,195.15,55.29C654.677,692.752,747.977,667.192,819.607,638.712z"/>
		</g>
		<g>
			<path fill="none" stroke="#1D1D1B" stroke-width="0.75" stroke-miterlimit="10" d="M819.607,638.712
				c-71.63,28.48-164.93,54.04-302.909,64.17c-61.03-27.1-119.07-50.05-195.15-55.29l253.48-253.47l187.329,187.33
				c0,0.01,0,0.01,0.021,0.02c0,0.01,0.02,0.01,0.02,0.02L819.607,638.712z"/>
			<path fill="none" stroke="#1D1D1B" stroke-width="0.75" stroke-miterlimit="10" d="M856.618,623.012
				c25.3-11.41,47.92-22.91,69.25-33.76c61.189-31.14,131.38-58.14,210.239-65.32l-151.949-137.89l-182.261,182.26L856.618,623.012z
				"/>
			<path fill="none" stroke="#1D1D1B" stroke-width="0.75" stroke-miterlimit="10" d="M896.458,639.852
				c-70,48.11-310.561,93.81-310.561,93.81c188.311,86.82,379.23,89.39,379.23,89.39c150.979-41.12,234.55-154.2,234.55-154.2
				c5.09-68.33-8.42-112-8.42-112C1057.257,541.512,896.458,639.852,896.458,639.852z"/>
			<path fill="none" stroke="#1D1D1B" stroke-width="0.75" stroke-miterlimit="10" d="M717.038,910.642
				c-234.54,23.781-308.35,111.26-308.35,111.26c115.9,101.951,259.9,110.932,259.9,110.932
				c233.33,27.689,380.85-125.551,380.85-125.551c127.82-114.1,147.33-276.25,147.33-276.25
				C1040.107,897.932,717.038,910.642,717.038,910.642z"/>
			<path fill="none" stroke="#1D1D1B" stroke-width="0.75" stroke-miterlimit="10" d="M269.538,646.902l280.97-280.96
				c23.41-27.42,45.87-3.16,45.87-3.16l179.18,179.17l174.55-174.55c35.811-38.21,68.15-1.94,68.15-1.94l162.33,150.39
				c-115-351-470.09-336.26-470.09-336.26c-194.91,6.26-309.57,120.64-309.57,120.64c-166.34,147.62-160.23,347.85-160.23,347.85
				L269.538,646.902z"/>
			<path fill="none" stroke="#1D1D1B" stroke-width="0.75" stroke-miterlimit="10" d="M240.407,683.832
				c0,0,3.83,169.9,132.42,304.46c0,0,96.67-97.44,340.67-118.44l140.03-21.48c0,0-222.44-38.35-368.811-118.83
				C338.357,649.062,240.407,683.832,240.407,683.832z"/>
		</g>
	</g>
	<g>
		<path d="M1470.59,722.035h117.198c30.133,0,54.466,8.533,72.999,25.6s27.8,39.066,27.8,65.999c0,26.666-9.533,48.732-28.6,66.199
			c-19.066,17.467-43.666,26.2-73.799,26.2h-69.599v95.998h-46V722.035z M1516.59,761.234v106.798h66.398
			c17.866,0,32.267-5,43.199-15c10.934-10,16.4-22.733,16.4-38.2c0-15.466-5.467-28.266-16.4-38.399
			c-10.933-10.133-25.333-15.2-43.199-15.2H1516.59z"/>
		<path d="M1972.584,876.032h-143.997v125.998h-46V722.035h46v113.198h143.997V722.035h46v279.996h-46V876.032z"/>
		<path d="M2364.979,759.234c27.733,27.466,41.6,61.466,41.6,101.999c0,40.532-14.133,74.799-42.399,102.799
			c-28.266,27.999-63.065,41.999-104.398,41.999c-41.065,0-75.532-13.733-103.398-41.199
			c-27.866-27.467-41.799-61.466-41.799-101.999s14.199-74.799,42.599-102.798c28.4-28,63.133-42,104.199-42
			C2302.713,718.035,2337.247,731.768,2364.979,759.234z M2331.98,934.432c19.066-19.467,28.6-43.6,28.6-72.399
			c0-28.799-9.533-52.932-28.6-72.399c-19.066-19.466-42.866-29.199-71.399-29.199c-28.266,0-51.999,9.733-71.198,29.199
			c-19.2,19.467-28.8,43.6-28.8,72.399c0,28.8,9.6,52.933,28.8,72.399c19.199,19.466,42.933,29.199,71.198,29.199
			C2289.114,963.631,2312.914,953.897,2331.98,934.432z"/>
		<path d="M2599.379,762.034v239.996h-45.999V762.034h-86.799v-40h219.996v40H2599.379z"/>
		<path d="M2996.98,759.234c27.733,27.466,41.6,61.466,41.6,101.999c0,40.532-14.133,74.799-42.399,102.799
			c-28.266,27.999-63.065,41.999-104.398,41.999c-41.065,0-75.532-13.733-103.398-41.199
			c-27.866-27.467-41.799-61.466-41.799-101.999s14.199-74.799,42.599-102.798c28.4-28,63.133-42,104.199-42
			C2934.714,718.035,2969.248,731.768,2996.98,759.234z M2963.981,934.432c19.066-19.467,28.6-43.6,28.6-72.399
			c0-28.799-9.533-52.932-28.6-72.399c-19.066-19.466-42.866-29.199-71.399-29.199c-28.266,0-51.999,9.733-71.198,29.199
			c-19.2,19.467-28.8,43.6-28.8,72.399c0,28.8,9.6,52.933,28.8,72.399c19.199,19.466,42.933,29.199,71.198,29.199
			C2921.115,963.631,2944.915,953.897,2963.981,934.432z"/>
		<path d="M3401.374,866.432c-0.267,39.466-13.466,72.599-39.599,99.399s-58.8,40.199-97.999,40.199
			c-41.332,0-75.865-13.733-103.599-41.199c-27.732-27.467-41.599-61.466-41.599-101.999s14.133-74.799,42.399-102.798
			c28.266-28,63.065-42,104.398-42c13.333,0,25.999,1.467,37.999,4.4s21.866,6.4,29.6,10.4s14.533,8.066,20.399,12.2
			c5.867,4.135,10.134,7.668,12.8,10.6l4,4.4l-31.999,32.399c-0.801-0.8-1.867-1.934-3.2-3.4c-1.334-1.467-4.268-4.067-8.8-7.8
			c-4.534-3.733-9.468-7-14.8-9.8c-5.334-2.8-12.201-5.333-20.6-7.6c-8.4-2.267-17.133-3.4-26.2-3.4
			c-28.532,0-52.332,9.733-71.398,29.199c-19.066,19.467-28.6,43.733-28.6,72.799s9.533,53.332,28.6,72.799
			c19.066,19.466,42.866,29.199,71.398,29.199c22.934,0,42.666-6.8,59.199-20.399s26.533-31.6,30-53.999h-90.799v-34h137.998
			C3401.241,859.499,3401.374,862.966,3401.374,866.432z"/>
		<path d="M3497.375,722.035h120.799c28.799,0,52.199,8.2,70.198,24.6c18,16.399,27,37.533,27,63.399c0,20-5.8,37.533-17.399,52.599
			c-11.601,15.067-27.267,25.266-47,30.599l76.399,108.799h-53.999l-70.799-102.799h-59.199v102.799h-46V722.035z M3543.375,761.234
			v101.999h69.198c17.333,0,31.133-4.8,41.399-14.4c10.267-9.6,15.4-21.866,15.4-36.799s-5.134-27.133-15.4-36.6
			c-10.267-9.466-24.066-14.2-41.399-14.2H3543.375z"/>
		<path d="M4059.373,1002.03h-50.399l-28.399-69.999h-124.398l-28.399,69.999h-48.399l117.198-279.996h45.999L4059.373,1002.03z
			 M3868.975,895.632h97.998l-48.799-120.798L3868.975,895.632z"/>
		<path d="M4137.373,722.035h117.198c30.133,0,54.466,8.533,72.999,25.6s27.8,39.066,27.8,65.999c0,26.666-9.533,48.732-28.6,66.199
			c-19.066,17.467-43.666,26.2-73.799,26.2h-69.599v95.998h-46V722.035z M4183.373,761.234v106.798h66.398
			c17.866,0,32.267-5,43.199-15c10.934-10,16.4-22.733,16.4-38.2c0-15.466-5.467-28.266-16.4-38.399
			c-10.933-10.133-25.333-15.2-43.199-15.2H4183.373z"/>
		<path d="M4639.367,876.032H4495.37v125.998h-46V722.035h46v113.198h143.997V722.035h46v279.996h-46V876.032z"/>
	</g>
	<g>
		<path d="M1752.092,580.202h-50.399l-28.399-69.999h-124.398l-28.399,69.999h-48.399l117.198-279.996h45.999L1752.092,580.202z
			 M1561.695,473.804h97.998l-48.799-120.798L1561.695,473.804z"/>
		<path d="M1924.89,300.207c44.8,0,81.532,13.2,110.198,39.599c28.666,26.4,43,59.599,43,99.599s-14.601,73.465-43.8,100.398
			s-66.199,40.399-110.998,40.399h-93.199V300.207H1924.89z M1876.091,540.203h49.999c30.933,0,56.332-9.466,76.199-28.399
			c19.866-18.933,29.799-42.799,29.799-71.599c0-28.533-10-52.333-29.999-71.399c-20-19.066-45.333-28.599-75.999-28.599h-49.999
			V540.203z"/>
		<path d="M2128.09,300.207h51.6l87.599,221.196l87.599-221.196h49.199l-114.799,279.996h-45.999L2128.09,300.207z"/>
		<path d="M2482.089,580.202V300.207h199.997v40h-153.997v76.398h133.998v37.6h-133.998v85.999h157.997v40H2482.089z"/>
		<path d="M2827.286,368.605v211.597h-45.2V300.207h48l151.197,207.997V300.207h44.8v279.996h-44.8L2827.286,368.605z"/>
		<path d="M3242.882,340.206v239.996h-45.999V340.206h-86.799v-40h219.996v40H3242.882z"/>
		<path d="M3642.079,300.207v165.197c0,35.2-10.866,63.799-32.6,85.799s-49.8,33-84.199,33c-34.133,0-61.865-10.733-83.198-32.2
			s-31.999-49.799-31.999-84.999V300.207h46.799v165.597c0,22.667,6.533,41,19.6,55c13.066,14,29.866,21,50.399,21
			c20.8,0,37.666-6.933,50.599-20.8c12.934-13.866,19.4-32.266,19.4-55.199V300.207H3642.079z"/>
		<path d="M3750.078,300.207h120.799c28.8,0,52.199,8.2,70.198,24.6c18,16.399,27,37.533,27,63.399c0,20-5.8,37.533-17.399,52.599
			c-11.601,15.066-27.267,25.266-47,30.6l76.399,108.798h-53.999l-70.799-102.798h-59.199v102.798h-46V300.207z M3796.078,339.406
			v101.999h69.198c17.334,0,31.133-4.8,41.399-14.4c10.267-9.6,15.4-21.866,15.4-36.799s-5.134-27.133-15.4-36.6
			c-10.267-9.466-24.065-14.2-41.399-14.2H3796.078z"/>
		<path d="M4068.076,580.202V300.207h199.997v40h-153.997v76.398h133.998v37.6h-133.998v85.999h157.997v40H4068.076z"/>
	</g>
	<text transform="matrix(1 0 0 1 3525.0005 906.3999)" font-family="'MyriadPro-Regular'" font-size="12">ADVENTURE</text>
</g>
</svg>
