<?xml version="1.0" encoding="utf-8"?>
<!-- Generator: Adobe Illustrator 16.0.0, SVG Export Plug-In . SVG Version: 6.00 Build 0)  -->
<!DOCTYPE svg PUBLIC "-//W3C//DTD SVG 1.1//EN" "http://www.w3.org/Graphics/SVG/1.1/DTD/svg11.dtd">
<svg version="1.1" id="Capa_1" xmlns="http://www.w3.org/2000/svg" xmlns:xlink="http://www.w3.org/1999/xlink" x="0px" y="0px"
	 width="169.5px" height="143.087px" viewBox="0 0 169.5 143.087" enable-background="new 0 0 169.5 143.087" xml:space="preserve">
<g>
	<g>
		
			<linearGradient id="SVGID_1_" gradientUnits="userSpaceOnUse" x1="-259.2627" y1="-312.2368" x2="-169.4922" y2="-312.2368" gradientTransform="matrix(-0.6528 -0.6983 0.6904 -0.6454 161.5991 -275.4638)">
			<stop  offset="0" style="stop-color:#9059E5"/>
			<stop  offset="1" style="stop-color:#3862FF"/>
		</linearGradient>
		<path opacity="0.4" fill="url(#SVGID_1_)" d="M37.771,97.623c-4.422-9.938-1.621-19.592,12.337-21.031
			c13.958-1.438,3.148-15.607,17.753-40.166c14.605-24.559,37.977-20.021,56.127,3.117c18.151,23.138,8.432,73.386-35.661,79.422
			C44.234,125.002,37.771,97.623,37.771,97.623z"/>
		
			<linearGradient id="SVGID_2_" gradientUnits="userSpaceOnUse" x1="-334.6533" y1="-284.0811" x2="-223.73" y2="-284.0811" gradientTransform="matrix(-0.9634 -0.1151 0.1187 -0.9929 -150.9748 -243.4282)">
			<stop  offset="0" style="stop-color:#595BE5"/>
			<stop  offset="1" style="stop-color:#38EEFF"/>
		</linearGradient>
		<path opacity="0.6" fill="url(#SVGID_2_)" d="M135.953,45.153c-12.791-18.999-32.58,2.75-46.03-0.58
			c-13.449-3.33-49.783-27.685-58.469,15.663c-7.06,35.229,43.882,53.195,70.937,48.555
			C129.447,104.15,147.767,62.698,135.953,45.153z"/>
		
			<linearGradient id="SVGID_3_" gradientUnits="userSpaceOnUse" x1="25.832" y1="-124.6875" x2="109.8535" y2="-124.6875" gradientTransform="matrix(0.0882 -0.9961 0.9088 0.0805 191.0736 148.6227)">
			<stop  offset="0" style="stop-color:#9059E5"/>
			<stop  offset="1" style="stop-color:#3862FF"/>
		</linearGradient>
		<path fill="url(#SVGID_3_)" d="M37.907,78.111c-2.001-12.773,7.113-30.084,23.731-38.687c16.618-8.603,71.803-24.58,68.231,28.731
			c-3.573,53.312-43.87,46.468-58.263,42.927C57.213,107.54,40.468,94.457,37.907,78.111z"/>
	</g>
	<g>
		<g>
			<path fill="#FFFFFF" d="M92.264,49.489c6.033,0,6.033,6.034,6.033,6.034V72.66c0,0,0,6.138-6.033,6.138H74.16l-10.344,6.034
				l1.724-6.034c-6.035,0-6.035-6.138-6.035-6.138V55.523c0,0-0.06-6.034,6.035-6.034H92.264 M103.411,60.697
				c6.095,0,6.095,6.034,6.095,6.034v14.655c0,0,0,6.034-6.035,6.034l2.38,6.035L94.852,87.42H81.058
				c-6.094,0-6.034-6.034-6.034-6.034v-0.862h17.241c6.034,0,7.759-3.447,7.759-7.758V60.697H103.411 M92.264,47.489H65.54
				c-2.361,0-4.283,0.732-5.712,2.175c-2.291,2.314-2.326,5.521-2.322,5.879l0,17.117c0,2.747,1.509,6.619,5.482,7.789l-1.095,3.834
				c-0.224,0.785,0.051,1.627,0.696,2.129c0.359,0.278,0.792,0.42,1.227,0.42c0.347,0,0.695-0.09,1.008-0.271l8.211-4.791
				c0.058,0.986,0.397,3.543,2.311,5.476c1.429,1.443,3.351,2.175,5.712,2.175h13.28l10.551,5.788
				c0.302,0.165,0.633,0.247,0.961,0.247c0.477,0,0.949-0.171,1.323-0.5c0.632-0.557,0.847-1.451,0.538-2.234l-1.464-3.713
				c3.807-1.232,5.259-4.962,5.259-7.622V66.731c0-3.229-2.156-8.034-8.095-8.034h-3.114v-3.174
				C100.297,52.293,98.158,47.489,92.264,47.489L92.264,47.489z"/>
		</g>
	</g>
</g>
</svg>
